<svg xmlns="http://www.w3.org/2000/svg" viewBox="0 0 386.65 75.67"><defs><style>.cls-1{fill:#fff;}</style></defs><g id="Layer_2" data-name="Layer 2"><g id="Layer_1-2" data-name="Layer 1"><path class="cls-1" d="M0,2.59.47,73.52a.87.87,0,0,0,.88.86l36.42-.24a.87.87,0,0,0,.66-.3l9.15-10.55a.87.87,0,0,0-.66-1.45l-31.48.21a.88.88,0,0,1-.88-.87L14.17,2.49a.86.86,0,0,0-.88-.86L.87,1.71A.88.88,0,0,0,0,2.59Z"/><path class="cls-1" d="M61.1,2.34l.47,70.93a.89.89,0,0,0,.89.87l12.42-.09a.86.86,0,0,0,.86-.88L75.27,2.25a.87.87,0,0,0-.88-.87L62,1.46A.88.88,0,0,0,61.1,2.34Z"/><path class="cls-1" d="M137.64,8.62a.89.89,0,0,0-.14-1.21A31.38,31.38,0,0,0,116.79,0c-6.56,0-11.94,2.1-16.25,6.18a20,20,0,0,0-6.26,15.18c0,4.82,1.31,8.66,3.93,11.54s7.36,5.54,14.13,7.9c5.89,2.18,9.76,4,11.5,5.52a7.66,7.66,0,0,1,2.65,6.15c0,5.88-4.75,10.25-11.21,10.29s-11.43-2.86-14.83-8.63a.87.87,0,0,0-1.37-.2l-7.75,7.6a.88.88,0,0,0-.09,1.15c6.36,8.7,14.53,13.06,24.61,13Q127,75.6,134,68.9c4.69-4.46,7.06-10.26,7-17.3q-.06-8-4.43-13c-2.91-3.45-8.43-6.6-16.64-9.53-4.35-1.61-7.34-2.94-8.9-4.18a6,6,0,0,1-2.24-4.81c0-4.62,4.47-8.12,10.16-8.16q6.08,0,11.18,5a.87.87,0,0,0,1.32-.08Z"/><path class="cls-1" d="M182.14,13.32l14.63-.1a.88.88,0,0,0,.87-.88l-.07-10.59a.88.88,0,0,0-.88-.87l-45.09.3a.87.87,0,0,0-.87.88l.07,10.59a.88.88,0,0,0,.88.87l14.54-.1a.89.89,0,0,1,.88.87l.39,58.59a.88.88,0,0,0,.88.87l12.42-.09a.87.87,0,0,0,.87-.88l-.39-58.58A.86.86,0,0,1,182.14,13.32Z"/><path class="cls-1" d="M252.28.67,213.83.93a.86.86,0,0,0-.86.88l.47,70.92a.87.87,0,0,0,.88.87l38.44-.26a.86.86,0,0,0,.87-.88L253.56,62a.88.88,0,0,0-.88-.87l-24.27.16a.86.86,0,0,1-.88-.86l-.12-18a.86.86,0,0,1,.86-.88l23.32-.16a.86.86,0,0,0,.86-.88L252.38,30a.87.87,0,0,0-.88-.87l-23.31.15a.87.87,0,0,1-.88-.86l-.09-14.35a.87.87,0,0,1,.87-.88L252.36,13a.89.89,0,0,0,.87-.88l-.07-10.59A.87.87,0,0,0,252.28.67Z"/><path class="cls-1" d="M317.12,31.33l.28,40.87a.87.87,0,0,0,.88.87L330.7,73a.86.86,0,0,0,.86-.88l-.47-70.92a.87.87,0,0,0-.88-.87l-8.44,0a.9.9,0,0,0-.68.34l-32.92,42a.87.87,0,0,1-1.56-.53l-.27-40.69a.87.87,0,0,0-.88-.87L273,.69a.87.87,0,0,0-.87.88l.47,70.93a.87.87,0,0,0,.88.86l8.54,0a.87.87,0,0,0,.68-.34L315.56,30.8A.87.87,0,0,1,317.12,31.33Z"/><path class="cls-1" d="M366.07,42.17a20.28,20.28,0,0,1-20.45-20.69,20.52,20.52,0,1,1,41,0A20.32,20.32,0,0,1,366.07,42.17Zm0-37.87c-9.26,0-16.72,7.12-16.72,17.18s7.46,17.18,16.72,17.18,16.85-7.23,16.85-17.18S375.46,4.3,366.07,4.3Zm4.75,27.92c-.56-.56-.79-1.58-1-3.95S368.67,25,366.41,25h-3.5v7.23h-5.54V10.52h10.51c5.54,0,8.37,2.6,8.37,6.78A5.47,5.47,0,0,1,371.5,23a4.33,4.33,0,0,1,4,4.3c.22,3.16.34,4.18,1.13,5Zm-4.29-11.53c2.6,0,4-.79,4-2.83s-1.35-2.82-4-2.82h-3.62v5.65Z"/></g></g></svg>